# xmcd
#
# Track frame offsets: 
#        150
#        18142
#        33428
#        48437
#        63016
#        75892
#        93649
#        113723
#        132168
#        144611
#        161701
#
# Disc length: 2354 seconds
#
# Revision: 0
# Processed by: cddbd v1.5.2PL0 Copyright (c) Steve Scherf et al.
# Submitted via: ExactAudioCopy v0.99pb3
#
DISCID=8209300b
DTITLE=Kimmie Rhodes - Dreams of Flying
DYEAR=2011
DGENRE=Country
TTITLE0=Dreams of Flying
TTITLE1=Back Again
TTITLE2=Like Love To Me
TTITLE3=Catch the Wind
TTITLE4=Turnin' My World
TTITLE5=One By One
TTITLE6=New Way Through
TTITLE7=Unholy Ghost
TTITLE8=Not A Cloud
TTITLE9=Luh Luh Love
TTITLE10=Start Saying Goodbye
EXTD=
EXTT0=
EXTT1=
EXTT2=
EXTT3=
EXTT4=
EXTT5=
EXTT6=
EXTT7=
EXTT8=
EXTT9=
EXTT10=
PLAYORDER=
